<svg width="97" height="68" viewBox="0 0 97 68" fill="none" xmlns="http://www.w3.org/2000/svg">
  <mask id="path-1-inside-1_1804_1403" fill="white">
  <path fill-rule="evenodd" clip-rule="evenodd" d="M14.0438 0.792715H62.1987H62.1988C69.7429 0.792715 75.8586 6.90842 75.8586 14.4525C75.8586 21.9966 69.7429 28.1123 62.1988 28.1123H62.1987H13.9876V28.1122C6.44352 28.1122 0.327881 21.9965 0.327881 14.4524C0.327881 6.90831 6.44359 0.792603 13.9877 0.792603C14.0064 0.792603 14.0251 0.79264 14.0438 0.792715Z"/>
  </mask>
  <path d="M14.0438 0.792715L14.0237 5.79268L14.0337 5.79272H14.0438V0.792715ZM13.9876 28.1123H8.98757V33.1123H13.9876V28.1123ZM13.9876 28.1122H18.9876V23.1123L13.9876 23.1122L13.9876 28.1122ZM62.1987 -4.20728H14.0438V5.79272H62.1987V-4.20728ZM62.1988 -4.20728H62.1987V5.79272H62.1988V-4.20728ZM80.8586 14.4525C80.8586 4.147 72.5043 -4.20728 62.1988 -4.20728V5.79272C66.9815 5.79272 70.8586 9.66985 70.8586 14.4525H80.8586ZM62.1988 33.1123C72.5043 33.1123 80.8586 24.7581 80.8586 14.4525H70.8586C70.8586 19.2352 66.9815 23.1123 62.1988 23.1123V33.1123ZM62.1987 33.1123H62.1988V23.1123H62.1987V33.1123ZM13.9876 33.1123H62.1987V23.1123H13.9876V33.1123ZM8.98757 28.1122V28.1123H18.9876V28.1122H8.98757ZM13.9876 23.1122C9.20497 23.1122 5.32788 19.2351 5.32788 14.4524H-4.67212C-4.67212 24.7579 3.68207 33.1121 13.9875 33.1122L13.9876 23.1122ZM5.32788 14.4524C5.32788 9.66973 9.20501 5.7926 13.9877 5.7926V-4.2074C3.68216 -4.2074 -4.67212 4.14689 -4.67212 14.4524H5.32788ZM13.9877 5.7926C13.9997 5.7926 14.0117 5.79263 14.0237 5.79268L14.0639 -4.20724C14.0385 -4.20735 14.0131 -4.2074 13.9877 -4.2074V5.7926Z" fill="white" mask="url(#path-1-inside-1_1804_1403)"/>
  <mask id="path-3-inside-2_1804_1403" fill="white">
  <path fill-rule="evenodd" clip-rule="evenodd" d="M70.1297 2.9503C76.3298 7.24836 77.8716 15.7587 73.5735 21.9588L73.5225 22.0319L46.1534 61.5122C46.1379 61.5349 46.1222 61.5576 46.1065 61.5802C41.8085 67.7803 33.2981 69.3221 27.0981 65.024C20.8981 60.726 19.3562 52.2157 23.6542 46.0157L23.654 46.0156L51.121 6.39397L51.1213 6.39409C55.4194 0.194075 63.9297 -1.34776 70.1297 2.9503Z"/>
  </mask>
  <path d="M73.5735 21.9588L77.6737 24.8204L77.6782 24.8139L77.6827 24.8074L73.5735 21.9588ZM70.1297 2.9503L67.2811 7.05948L67.2811 7.05948L70.1297 2.9503ZM73.5225 22.0319L69.4224 19.1702L69.4179 19.1767L69.4133 19.1832L73.5225 22.0319ZM46.1534 61.5122L42.0442 58.6635L42.0358 58.6757L42.0274 58.688L46.1534 61.5122ZM46.1065 61.5802L41.9974 58.7315L41.9973 58.7316L46.1065 61.5802ZM27.0981 65.024L24.2494 69.1332H24.2495L27.0981 65.024ZM23.6542 46.0157L27.7634 48.8643L30.5979 44.7754L26.5231 41.9207L23.6542 46.0157ZM23.654 46.0156L19.5448 43.167L16.7102 47.2558L20.785 50.1106L23.654 46.0156ZM51.121 6.39397L53.1919 1.84298L49.391 0.113426L47.0118 3.54535L51.121 6.39397ZM51.1213 6.39409L49.0504 10.9451L52.8513 12.6746L55.2305 9.24271L51.1213 6.39409ZM77.6827 24.8074C83.554 16.3379 81.4478 4.71243 72.9784 -1.15888L67.2811 7.05948C71.2117 9.78429 72.1892 15.1796 69.4644 19.1101L77.6827 24.8074ZM77.6226 24.8935L77.6737 24.8204L69.4734 19.0971L69.4224 19.1702L77.6226 24.8935ZM50.2626 64.3608L77.6317 24.8805L69.4133 19.1832L42.0442 58.6635L50.2626 64.3608ZM42.0274 58.688C42.0173 58.7027 42.0073 58.7172 41.9974 58.7315L50.2156 64.429C50.2371 64.398 50.2584 64.3671 50.2794 64.3364L42.0274 58.688ZM41.9973 58.7316C39.2725 62.6622 33.8773 63.6397 29.9467 60.9149L24.2495 69.1332C32.7189 75.0045 44.3444 72.8983 50.2157 64.4289L41.9973 58.7316ZM29.9467 60.9149C26.0161 58.1901 25.0387 52.7949 27.7634 48.8643L19.545 43.1672C13.6738 51.6366 15.7801 63.2619 24.2494 69.1332L29.9467 60.9149ZM20.785 50.1106L20.7852 50.1107L26.5231 41.9207L26.5229 41.9206L20.785 50.1106ZM47.0118 3.54535L19.5448 43.167L27.7632 48.8642L55.2302 9.24259L47.0118 3.54535ZM53.1922 1.8431L53.1919 1.84298L49.0502 10.945L49.0504 10.9451L53.1922 1.8431ZM72.9784 -1.15888C64.5089 -7.03019 52.8834 -4.92398 47.0121 3.54547L55.2305 9.24271C57.9553 5.31213 63.3505 4.33467 67.2811 7.05948L72.9784 -1.15888Z" fill="white" mask="url(#path-3-inside-2_1804_1403)"/>
  <mask id="path-5-inside-3_1804_1403" fill="white">
  <path fill-rule="evenodd" clip-rule="evenodd" d="M34.8789 40.1649H83.0899H83.0901C90.6341 40.165 96.7498 46.2807 96.7498 53.8247C96.7498 61.3688 90.6341 67.4845 83.0901 67.4845H83.0899H34.9789C34.9457 67.4848 34.9125 67.4849 34.8792 67.4849C27.3351 67.4849 21.2194 61.3692 21.2194 53.8251C21.2194 46.2811 27.3349 40.1654 34.8789 40.1653V40.1649Z"/>
  </mask>
  <path d="M34.8789 40.1649V35.1649H29.8789V40.1649H34.8789ZM83.0901 40.1649L83.0901 35.1649H83.0901V40.1649ZM83.0901 67.4845V72.4845H83.0901L83.0901 67.4845ZM34.9789 67.4845V62.4845H34.961L34.9431 62.4847L34.9789 67.4845ZM34.8789 40.1653L34.879 45.1653L39.8789 45.1652V40.1653H34.8789ZM83.0899 35.1649H34.8789V45.1649H83.0899V35.1649ZM83.0901 35.1649H83.0899V45.1649H83.0901V35.1649ZM101.75 53.8247C101.75 43.5193 93.3956 35.165 83.0901 35.1649L83.09 45.1649C87.8727 45.165 91.7498 49.0421 91.7498 53.8247H101.75ZM83.0901 72.4845C93.3956 72.4845 101.75 64.1302 101.75 53.8247H91.7498C91.7498 58.6074 87.8727 62.4845 83.09 62.4845L83.0901 72.4845ZM83.0899 72.4845H83.0901V62.4845H83.0899V72.4845ZM34.9789 72.4845H83.0899V62.4845H34.9789V72.4845ZM34.9431 62.4847C34.9219 62.4848 34.9006 62.4849 34.8792 62.4849V72.4849C34.9243 72.4849 34.9695 72.4847 35.0148 72.4844L34.9431 62.4847ZM34.8792 62.4849C30.0965 62.4849 26.2194 58.6078 26.2194 53.8251H16.2194C16.2194 64.1306 24.5736 72.4849 34.8792 72.4849V62.4849ZM26.2194 53.8251C26.2194 49.0425 30.0964 45.1654 34.879 45.1653L34.8789 35.1653C24.5735 35.1654 16.2194 43.5197 16.2194 53.8251H26.2194ZM29.8789 40.1649V40.1653H39.8789V40.1649H29.8789Z" fill="white" mask="url(#path-5-inside-3_1804_1403)"/>
  </svg>
  